<svg viewBox="73.91467065868267 280.875 552.0209580838324 477.4874999999998" xmlns="http://www.w3.org/2000/svg" xmlns:xlink="http://www.w3.org/1999/xlink" overflow="visible" width="552.0209580838324px" height="477.4874999999998px"><defs><polygon id="mastercharactersitting-path-1" points="0.644 0.0174503817 98.896 0.0174503817 98.896 28.4488725 0.644 28.4488725"/><path d="M0.611,4.152 C0.516,6.977 4.407,8.141 8.572,9.455 L8.572,9.455 C16.217,11.868 20.367,12.194 21.052,9.038 L21.052,9.038 C21.453,7.193 20.288,5.826 18.679,5.317 L18.679,5.317 C17.91,5.073 16.958,4.844 15.818,4.517 L15.818,4.517 C15.818,4.517 12.448,3.701 6.92,1.517 L6.92,1.517 C6.885,1.502 6.85,1.488 6.813,1.475 L6.813,1.475 C5.923,1.139 5.098,0.988999462 4.36,0.988999462 L4.36,0.988999462 C2.113,0.988 0.672,2.381 0.611,4.152 L0.611,4.152 Z" id="mastercharactersitting-path-3"/></defs><g id="Master/Character/Sitting" stroke="none" stroke-width="1" fill="none" fill-rule="evenodd"><g id="Sitting/Lower Body" transform="translate(204.000000, 488.000000) scale(1 1)"><defs><polygon id="sittinglower-bodypurple-pants-path-1" points="0.644 0.018 98.896 0.018 98.896 31.1879 0.644 31.1879"/></defs><g id="Sitting/Lower Body/Purple Pants" stroke="none" stroke-width="1" fill="none" fill-rule="evenodd"><g id="Group-100" transform="translate(51.000000, 6.000000)"><g id="Group-87" transform="translate(0.000000, 0.982000)"><path d="M270.1253,242.2669 C270.0513,241.5329 269.9343,240.8259 269.7683,240.1479 C269.3933,238.6119 268.7783,237.2229 267.9753,235.9509 C267.9723,235.9459 267.9653,235.9329 267.9653,235.9329 L267.9643,235.9329 C263.1223,228.2869 251.2083,224.9899 240.0723,221.2189 C229.0443,217.4849 218.7863,213.2819 216.9333,203.9179 L163.6533,205.4449 C163.6533,205.4449 164.4313,221.5149 164.9023,235.1189 C165.1103,241.1059 173.6543,250.8159 180.0133,250.9969 C196.0433,251.4549 255.8883,251.9129 255.8883,251.9129 C255.8883,251.9129 270.2173,251.3299 270.213301,243.9159 C270.213301,243.3629 270.1923,242.8099 270.1253,242.2669" id="Fill-54" fill="#FD2118"/><path d="M230.3113,228.0784 C229.9703,228.0784 229.6283,227.9634 229.3473,227.7264 C228.7123,227.1934 228.6303,226.2474 229.1643,225.6134 L237.2943,215.9394 C237.8283,215.3074 238.7753,215.2244 239.4083,215.7564 C240.0423,216.2894 240.1243,217.2354 239.5913,217.8704 L231.4603,227.5444 C231.1643,227.8964 230.7393,228.0784 230.3113,228.0784" id="Fill-56" fill="#D5E1D5"/><path d="M224.8045,224.72 C224.4575,224.72 224.1105,224.601 223.8265,224.357 C223.1995,223.816 223.1275,222.869 223.6685,222.241 L231.6165,213.008 C232.1575,212.381 233.1035,212.309 233.7315,212.85 C234.3595,213.391 234.4305,214.337 233.8895,214.965 L225.9425,224.199 C225.6455,224.543 225.2265,224.72 224.8045,224.72" id="Fill-58" fill="#D5E1D5"/><path d="M220.0149,220.7034 C219.6069,220.7034 219.1999,220.5374 218.9039,220.2114 C218.3469,219.5984 218.3939,218.6484 219.0069,218.0934 L226.1779,211.5894 C226.7899,211.0334 227.7409,211.0784 228.2969,211.6914 C228.8539,212.3064 228.8069,213.2544 228.1939,213.8104 L221.0229,220.3144 C220.7359,220.5754 220.3739,220.7034 220.0149,220.7034" id="Fill-60" fill="#D5E1D5"/><path d="M164.9026,236.2854 C164.9746,237.9774 165.0506,239.7374 165.1296,241.5514 C165.6266,252.9404 175.3566,252.6604 175.3566,252.6604 C175.3566,252.6604 199.6546,253.0884 222.0736,253.4294 C217.2916,249.9434 211.1106,246.1184 203.4576,242.6834 C189.4446,236.3944 173.8286,235.9034 164.9026,236.2854" id="Fill-62" fill="#D5E1D5"/><path d="M270.4017,243.7659 C270.3277,243.0169 269.5677,242.5429 268.8717,242.8299 C265.4287,244.2539 254.8937,247.8309 237.3147,247.1179 C215.4707,246.2309 218.5887,240.3559 198.4697,226.2229 C189.1157,219.6519 170.8467,220.1069 164.9117,220.4519 C163.8467,220.5129 163.0337,221.4119 163.0767,222.4789 C163.1717,224.8249 163.3657,229.4479 163.5887,234.7039 C163.6337,235.7749 164.5287,236.6109 165.5997,236.5839 C174.8787,236.3509 190.3987,236.8229 203.4577,242.6839 C211.1097,246.1189 217.2917,249.9439 222.0737,253.4289 C236.8667,253.6539 250.8407,253.8389 256.4737,253.8389 C269.8867,253.8389 270.7117,246.8959 270.4017,243.7659" id="Fill-64" fill="#4947D9"/><path d="M235.8733,242.2669 C235.7993,241.5329 235.6823,240.8259 235.5163,240.1479 C235.1413,238.6119 234.5273,237.2229 233.7233,235.9509 C233.7213,235.9459 233.7133,235.9329 233.7133,235.9329 L233.7123,235.9329 C228.8703,228.2869 216.9563,224.9899 205.8203,221.2189 C194.7933,217.4849 184.5343,213.2819 182.6813,203.9179 L129.4013,205.4449 C129.4013,205.4449 130.1793,221.5149 130.6513,235.1189 C130.8583,241.1059 139.4033,250.8159 145.7623,250.9969 C161.7913,251.4549 221.6363,251.9129 221.6363,251.9129 C221.6363,251.9129 235.9653,251.3299 235.961301,243.9159 C235.961301,243.3629 235.9403,242.8099 235.8733,242.2669" id="Fill-66" fill="#FE5C4F"/><path d="M100.2401,25.3509 L86.2371,21.6909 L43.4856803,21.6909 L43.4856803,33.1069 L43.4856803,33.1069 C43.4856803,33.1069 42.3851,89.5889 101.5871,94.3399 L137.9261,99.4089 C137.9261,99.4089 167.2641,99.6319 167.2641,128.8549 C167.2641,140.2879 168.6301,190.3709 168.2881,195.9029 C168.1911,197.4919 168.1451,200.6929 168.1231,203.5739 C168.0991,206.8449 170.8131,209.7549 174.4621,209.8759 C175.4581,209.9099 175.9661,209.8759 176.8821,209.8759 C184.1911,209.8759 213.2091,209.891011 216.2501,209.891011 C221.8211,209.891011 222.1611,205.6819 222.2461,200.0289 C222.9971,150.0159 227.0591,94.9429 204.7451,67.3849 C187.8221,46.4849 164.9031,36.8409 100.2401,25.3509" id="Fill-68" fill="#4947D9"/><path d="M100.2401,25.3509 L75.2631,21.6909 L0.64368039,21.6909 L0.64368039,33.1069 L0.64368039,33.1069 C0.64368039,33.1069 -0.4569,89.5889 58.7461,94.3399 L95.0841,99.4089 C95.0841,99.4089 124.4231,99.6319 124.4231,128.8549 C124.4231,140.2879 125.7881,190.3709 125.4471,195.9029 C125.3491,197.4919 125.3031,200.6929 125.2821,203.5739 C125.2581,206.8449 127.9711,209.7549 131.6201,209.8759 C132.6161,209.9099 133.1241,209.8759 134.0401,209.8759 L181.9431,209.8759 C187.5131,209.8759 187.7121,205.6629 187.9391,200.0139 C188.1601,194.5249 196.4741,118.8129 181.9431,85.2539 C169.8851,57.4099 133.1621,42.8289 100.2401,25.3509" id="Fill-70" fill="#7D7AF9"/><g id="Group-74"><mask id="sittinglower-bodypurple-pants-mask-2" fill="#ffffff"><use xlink:href="#sittinglower-bodypurple-pants-path-1" fill="#ffffff"/></mask><g id="Clip-73"/><path d="M77.223,0.0179 L22.318,0.0179 C10.347,0.0179 0.644,9.7209 0.644,21.6909 L0.644,29.3449 L98.707,31.1879 L98.896,21.6909 C98.896,9.7209 89.193,0.0179 77.223,0.0179" id="Fill-72" fill="#7D7AF9" mask="url(#sittinglower-bodypurple-pants-mask-2)"/></g><path d="M193.431,231.5442 C193.09,231.5442 192.748,231.4292 192.467,231.1922 C191.832,230.6592 191.75,229.7132 192.284,229.0782 L200.414,219.4042 C200.948,218.7722 201.895,218.6892 202.528,219.2222 C203.162,219.7552 203.244,220.7012 202.711,221.3352 L194.58,231.0092 C194.284,231.3612 193.859,231.5442 193.431,231.5442" id="Fill-75" fill="#F8FBF8"/><path d="M187.9241,228.1848 C187.5771,228.1848 187.2301,228.0658 186.9461,227.8218 C186.3191,227.2818 186.2471,226.3338 186.7881,225.7058 L194.7361,216.4738 C195.2771,215.8458 196.2231,215.7748 196.8511,216.3158 C197.4791,216.8558 197.5501,217.8028 197.0091,218.4308 L189.0621,227.6638 C188.7651,228.0078 188.3461,228.1848 187.9241,228.1848" id="Fill-77" fill="#F8FBF8"/><path d="M184.1194,221.8704 C183.7114,221.8704 183.3044,221.7044 183.0084,221.3784 C182.4514,220.7644 182.4984,219.8154 183.1114,219.2594 L190.2824,212.7554 C190.8944,212.1994 191.8454,212.2454 192.4014,212.8584 C192.9584,213.4724 192.9114,214.4214 192.2984,214.9764 L185.1274,221.4804 C184.8404,221.7414 184.4784,221.8704 184.1194,221.8704" id="Fill-79" fill="#F8FBF8"/><path d="M130.6512,236.2854 C130.7232,237.9774 130.7992,239.7374 130.8782,241.5514 C131.3752,252.9404 141.1042,252.6604 141.1042,252.6604 C141.1042,252.6604 165.4032,253.0884 187.8212,253.4294 C183.0402,249.9434 176.8582,246.1184 169.2062,242.6834 C155.1932,236.3944 139.5772,235.9034 130.6512,236.2854" id="Fill-81" fill="#D5E1D5"/><path d="M236.1497,243.7659 C236.0757,243.0169 235.3157,242.5429 234.6197,242.8299 C231.1767,244.2539 220.6427,247.8309 203.0637,247.1179 C181.2197,246.2309 184.3367,240.3559 164.2177,226.2229 C154.8637,219.6519 136.5947,220.1069 130.6607,220.4519 C129.5947,220.5129 128.7817,221.4119 128.8247,222.4789 C128.9197,224.8249 129.1137,229.4479 129.3367,234.7039 C129.3817,235.7749 130.2767,236.6109 131.3487,236.5839 C140.6277,236.3509 156.1467,236.8229 169.2067,242.6839 C176.8577,246.1189 183.0397,249.9439 187.8217,253.4289 C202.6147,253.6539 216.5887,253.8389 222.2217,253.8389 C235.6347,253.8389 236.4597,246.8959 236.1497,243.7659" id="Fill-83" fill="#7D7AF9"/><path d="M157.2898,242.5178 C157.2898,242.5178 142.7588,238.8148 141.2728,242.7398 C139.8868,246.3968 145.5438,249.0098 156.0708,249.4458 C164.1068,249.7778 163.0748,243.9038 157.2898,242.5178" id="Fill-85" fill="#FEF864"/></g></g></g></g><g id="Upper Body" transform="translate(-1.000000, 53.000000) scale(1 1)"><defs><polygon id="upper-bodysuperhero-path-1" points="0.606828676 0.9535 32.904 0.9535 32.904 6.2565 0.606828676 6.2565"/><polygon id="upper-bodysuperhero-path-3" points="0 0.0324 255.9499 0.0324 255.9499 196.950829 0 196.950829"/></defs><g id="Upper Body/Superhero" stroke="none" stroke-width="1" fill="none" fill-rule="evenodd"><g id="Group-691" transform="translate(81.500000, 271.500000)"><g id="Group-551" transform="translate(0.000000, 0.095000)"><path d="M477.6802,48.0172 L486.0642,48.0172 C486.0642,48.0172 491.1622,60.7632 510.3382,58.5202 C530.8462,56.1212 536.7052,40.6352 534.4042,25.7782 C532.4802,13.3622 525.2272,-6.1348 479.4722,2.0272 L477.6802,48.0172 Z" id="Fill-509" fill="#d46b55"/><path d="M532.4048,19.4283 C532.2308,19.4283 532.0538,19.3973 531.8818,19.3333 C522.2468,15.7453 505.3498,16.5203 505.1798,16.5293 C504.3248,16.5813 503.6488,15.9303 503.6088,15.1043 C503.5688,14.2763 504.2068,13.5733 505.0338,13.5323 C505.7498,13.4983 522.7128,12.7173 532.9278,16.5223 C533.7048,16.8113 534.0988,17.6743 533.8098,18.4503 C533.5858,19.0553 533.0128,19.4283 532.4048,19.4283" id="Fill-511" fill="#000"/><g id="Group-515" transform="translate(503.000000, 23.000000)"><mask id="upper-bodysuperhero-mask-2" fill="#ffffff"><use xlink:href="#upper-bodysuperhero-path-1" fill="#ffffff"/></mask><g id="Clip-514"/><path d="M31.4039,6.2565 C31.2569,6.2565 31.1049,6.2345 30.9569,6.1875 C24.5469,4.1845 2.3169,3.9555 2.0929,3.9535 C1.2649,3.9455 0.5989,3.2685 0.606828676,2.4405 C0.6149,1.6165 1.2849,0.9535 2.1069,0.9535 L2.1209,0.9535 C3.0519,0.9625 25.0219,1.1905 31.8509,3.3235 C32.6419,3.5705 33.0829,4.4125 32.8359,5.2025 C32.6349,5.8455 32.0429,6.2565 31.4039,6.2565" id="Fill-513" fill="#000" mask="url(#upper-bodysuperhero-mask-2)"/></g><path d="M534.107,40.3912 C534.015,40.3912 533.922,40.3822 533.829,40.3652 C521.855,38.1202 506.431,38.0932 506.277,38.0932 C505.449,38.0932 504.777,37.4222 504.777,36.5932 C504.777,35.7652 505.449,35.0932 506.277,35.0932 C506.434,35.0932 522.129,35.1202 534.381,37.4162 C535.196,37.5692 535.732,38.3522 535.58,39.1662 C535.444,39.8872 534.814,40.3912 534.107,40.3912" id="Fill-516" fill="#000"/><g id="Group-520" transform="translate(0.000000, 31.000000)"><mask id="upper-bodysuperhero-mask-4" fill="#ffffff"><use xlink:href="#upper-bodysuperhero-path-3" fill="#ffffff"/></mask><g id="Clip-519"/><path d="M121.6539,38.1364 C121.6539,38.1364 0.6689,70.1704 0.0039,106.3624 C-0.3241,124.2184 19.0699,124.3194 19.0699,124.3194 C19.0699,124.3194 32.2119,124.3194 34.6989,130.5264 C37.4979,137.5094 35.6969,145.4904 27.3829,150.9224 C19.0699,156.3534 -2.1711,163.1694 4.5489,184.9514 C10.9779,205.7914 49.6639,193.1554 49.6639,193.1554 L144.3269,164.7784 L255.9499,129.7504 L254.8409,0.0324 L121.6539,38.1364 Z" id="Fill-518" fill="#E2334F" mask="url(#upper-bodysuperhero-mask-4)"/></g><path d="M148.6109,195.778 L311.1579,195.778 C312.8769,195.778 314.2779,194.399 314.3049,192.68 L316.9159,31.032 L195.8709,31.032 L145.6059,191.69 C144.9719,193.717 146.4859,195.778 148.6109,195.778" id="Fill-521" fill="#4947D9"/><path d="M171.3184,108.5416 L162.4244,108.6006 L151.9554,152.0336 C158.1284,152.3516 164.7264,152.3456 164.7264,152.3456 C164.7264,152.3456 211.6664,155.3746 215.1844,130.2046 C218.8464,104.0016 196.3694,92.4796 171.3184,108.5416" id="Fill-523" fill="#d46b55"/><path d="M141.9991,108.3199 C141.9991,108.3199 130.5261,108.9849 130.5341,98.9049 C130.5401,91.7549 136.5951,88.7829 141.5001,88.8659 C146.4051,88.9489 183.766543,90.0351673 183.766543,90.0351673 L195.8711,31.0319 C195.8711,31.0319 118.2781,23.7439 84.8021,57.7729 C51.8071,91.3139 64.2501,147.6069 110.0751,159.1989 C120.3361,161.7939 136.0701,163.4069 143.9221,164.0959 C146.7231,164.3419 149.3111,162.5979 150.1451,159.9129 L166.1041,108.4949 L141.9991,108.3199 Z" id="Fill-525" fill="#4947D9"/><path d="M309.691728,92.5131662 C310.705728,92.2201662 441.7927,70.752 471.4697,65.766 C475.1297,65.152 477.8487,62.054 477.9937,58.346 L480.1937,1.907 L316.9157,31.032 L309.691728,92.5131662 Z" id="Fill-527" fill="#4947D9"/><path d="M203.6026,31.0319 C203.6026,31.0319 213.4126,37.0729 223.2226,39.9819 C233.0326,42.8919 255.0716,53.3509 255.0716,53.3509 L254.8416,45.9959 L235.1936,31.0319 L203.6026,31.0319 Z" id="Fill-529" fill="#E2334F"/><path d="M254.8414,45.9957 L272.6874,31.0317 L293.4714,31.0317 C293.4714,31.0317 272.3714,48.5127 255.0714,53.3507 L254.8414,45.9957 Z" id="Fill-531" fill="#E2334F"/><path d="M254.8414,45.9957 C254.8414,45.9957 246.9994,45.5607 244.7964,53.3507 C242.5924,61.1407 247.4564,64.3417 252.6524,64.5487 C257.8484,64.7567 264.3324,62.5537 263.5844,54.6557 C262.8364,46.7587 254.8414,45.9957 254.8414,45.9957" id="Fill-533" fill="#E2334F"/><path d="M247.6363,62.8727 C247.6363,62.8727 234.0483,77.6097 235.6653,85.8177 C237.1063,93.1337 243.4243,101.2817 246.0843,101.1707 C248.7443,101.0607 256.2923,92.9967 258.2783,87.7017 C260.2733,82.3817 252.4033,61.9857 252.4033,61.9857 L247.6363,62.8727 Z" id="Fill-535" fill="#E2334F"/><path d="M256.8585,60.5905 C256.8585,60.5905 269.1655,66.8985 271.6665,74.1025 C274.1565,81.2735 273.3795,90.7825 271.0255,92.0255 C268.6715,93.2685 260.5885,92.0835 256.5585,89.0615 C252.5085,86.0235 252.3405,62.2955 252.3405,62.2955 L256.8585,60.5905 Z" id="Fill-537" fill="#E2334F"/><path d="M315.4468,93.5172 L315.4218,93.5172 C314.5928,93.5032 313.9328,92.8222 313.9458,91.9942 C313.9628,90.9602 314.3478,90.3602 314.5788,90.0002 C314.7268,89.7692 314.7328,89.7602 314.7358,89.5812 C314.7438,89.1302 314.7068,88.9392 314.6558,88.6732 C314.5918,88.3352 314.5108,87.9142 314.5228,87.1542 C314.5298,86.7652 314.4898,86.6232 314.4188,86.3662 C314.3238,86.0222 314.1928,85.5492 314.2058,84.7282 C314.2218,83.7002 314.6038,83.1012 314.8318,82.7442 C314.9788,82.5112 314.9848,82.5022 314.9878,82.3222 C314.9978,81.7032 315.0088,81.3942 315.0188,81.0842 C315.0298,80.7892 315.0398,80.4942 315.0498,79.9032 C315.0518,79.7592 315.0518,79.7592 314.9048,79.5342 C314.6618,79.1612 314.2548,78.5382 314.2708,77.4742 C314.2838,76.6762 314.4068,76.2402 314.5058,75.8892 C314.5778,75.6312 314.6208,75.4752 314.6278,75.0662 C314.6418,74.1522 314.8818,73.6212 315.0408,73.2702 C315.1468,73.0322 315.1828,72.9522 315.1878,72.6572 C315.1918,72.4152 315.1678,72.3662 315.0518,72.1302 C314.8688,71.7582 314.5918,71.1972 314.6068,70.2302 C314.6198,69.4452 314.7328,69.0142 314.8238,68.6682 C314.8908,68.4122 314.9348,68.2422 314.9418,67.8192 C314.9468,67.5402 314.9158,67.4682 314.8108,67.2302 C314.6538,66.8692 314.4158,66.3232 314.4298,65.3932 C314.4428,64.5912 314.5688,64.1532 314.6698,63.8002 C314.7428,63.5432 314.7868,63.3892 314.7938,62.9832 C314.8068,62.1242 314.9858,61.6402 315.1158,61.2862 C315.2048,61.0442 315.2488,60.9232 315.2548,60.5742 C315.2588,60.3292 315.2348,60.2812 315.1198,60.0432 C314.9388,59.6732 314.6658,59.1132 314.6808,58.1512 C314.6898,57.6192 314.6688,57.3522 314.6468,57.0852 C314.6208,56.7472 314.5928,56.4092 314.6038,55.7332 C314.6148,55.0862 314.6378,54.7632 314.6628,54.4412 C314.6828,54.1612 314.7038,53.8812 314.7128,53.3212 C314.7258,52.5002 315.3948,51.8452 316.2128,51.8452 L316.2368,51.8452 C317.0648,51.8592 317.7258,52.5402 317.7128,53.3702 C317.7018,54.0152 317.6778,54.3382 317.6538,54.6622 C317.6338,54.9412 317.6128,55.2212 317.6038,55.7822 C317.5948,56.3142 317.6168,56.5792 317.6378,56.8462 C317.6648,57.1852 317.6918,57.5242 317.6808,58.2002 C317.6768,58.4442 317.7008,58.4932 317.8158,58.7302 C317.9968,59.1002 318.2698,59.6612 318.2548,60.6222 C318.2408,61.4812 318.0618,61.9662 317.9318,62.3212 C317.8428,62.5612 317.7998,62.6822 317.7938,63.0322 C317.7808,63.8332 317.6548,64.2722 317.5538,64.6242 C317.4808,64.8812 317.4368,65.0362 317.4298,65.4422 C317.4258,65.7202 317.4568,65.7922 317.5608,66.0312 C317.7178,66.3922 317.9568,66.9382 317.9418,67.8682 C317.9288,68.6532 317.8158,69.0832 317.7248,69.4292 C317.6578,69.6862 317.6138,69.8562 317.6068,70.2792 C317.6028,70.5202 317.6278,70.5702 317.7428,70.8052 C317.9258,71.1772 318.2038,71.7392 318.1878,72.7052 C318.1738,73.6202 317.9338,74.1512 317.7748,74.5022 C317.6688,74.7402 317.6328,74.8202 317.6278,75.1152 C317.6148,75.9132 317.4918,76.3492 317.3928,76.7002 C317.3208,76.9572 317.2778,77.1142 317.2708,77.5232 C317.2678,77.6662 317.2678,77.6662 317.4158,77.8922 C317.6588,78.2652 318.0658,78.8882 318.0498,79.9522 C318.0398,80.5712 318.0288,80.8792 318.0178,81.1892 C318.0078,81.4842 317.9978,81.7802 317.9878,82.3712 C317.9708,83.3992 317.5898,83.9972 317.3618,84.3552 C317.2148,84.5872 317.2088,84.5962 317.2058,84.7772 C317.1988,85.1652 317.2388,85.3072 317.3098,85.5652 C317.4048,85.9102 317.5358,86.3812 317.5228,87.2032 C317.5148,87.6542 317.5518,87.8452 317.6028,88.1112 C317.6678,88.4492 317.7478,88.8702 317.7358,89.6302 C317.7188,90.6632 317.3338,91.2632 317.1028,91.6222 C316.9548,91.8542 316.9488,91.8632 316.9458,92.0412 C316.9318,92.8622 316.2628,93.5172 315.4468,93.5172" id="Fill-539" fill="#000"/><path d="M187.0669,140.6842 C186.3799,140.6842 185.7609,140.2102 185.6039,139.5132 C185.4219,138.7052 185.9299,137.9022 186.7389,137.7202 L214.2499,131.5352 C215.0609,131.3502 215.8599,131.8622 216.0429,132.6692 C216.2239,133.4772 215.7159,134.2802 214.9079,134.4612 L187.3969,140.6472 C187.2869,140.6722 187.1749,140.6842 187.0669,140.6842" id="Fill-541" fill="#000"/><path d="M185.9576,128.3151 C185.2456,128.3151 184.6136,127.8061 184.4826,127.0811 C184.3366,126.2651 184.8786,125.4851 185.6936,125.3381 L215.0116,120.0621 C215.8236,119.9161 216.6056,120.4571 216.7536,121.2721 C216.8996,122.0871 216.3576,122.8681 215.5426,123.0141 L186.2256,128.2911 C186.1356,128.3071 186.0456,128.3151 185.9576,128.3151" id="Fill-543" fill="#000"/><path d="M185.9576,116.9635 C185.2616,116.9635 184.6376,116.4765 184.4906,115.7675 C184.3226,114.9555 184.8446,114.1615 185.6546,113.9935 L211.2526,108.6885 C212.0536,108.5195 212.8576,109.0395 213.0256,109.8535 C213.1936,110.6635 212.6726,111.4575 211.8616,111.6255 L186.2646,116.9315 C186.1616,116.9525 186.0596,116.9635 185.9576,116.9635" id="Fill-545" fill="#000"/><path d="M247.107,1.9069 L235.708,1.9069 C230.554,1.9069 226.168,5.6009 225.252,10.6419 C225.242,10.7049 225.233,10.7649 225.224,10.8289 L225.218,10.8619 L225.218,10.8629 C225.181,11.1079 225.143,11.3579 225.106,11.6069 C223.779,20.3479 222.141,31.0589 222.141,31.0589 L257.574,31.0589 L257.646,23.2939 L257.744,12.6419 C257.799,6.7289 253.021,1.9069 247.107,1.9069" id="Fill-547" fill="#d46b55"/><path d="M257.5738,31.0592 C243.6988,30.0832 239.9078,27.1082 240.0418,24.6312 C240.1608,22.4132 242.2458,22.7222 243.1568,22.7432 C247.1708,22.8322 257.6458,23.2932 257.6458,23.2932" id="Fill-549" fill="#000"/></g></g></g></g><g id="Head" transform="translate(204.000000, 198.000000) scale(1 1)"><g id="Head/Long Straight Hair 1" stroke="none" stroke-width="1" fill="none" fill-rule="evenodd"><g id="Group-183" transform="translate(54.000000, 86.000000)"><g id="Group-30" transform="translate(0.000000, 0.738000)"><path d="M95.2372,32.1413 C93.6952,29.0933 89.1262,29.7243 87.7992,29.9203 C86.4842,24.3393 85.0672,19.3443 83.7802,16.9373 C81.0752,11.8793 72.8292,6.5653 59.6402,8.6063 C50.8832,9.9613 41.5572,18.1303 47.6142,32.3513 C47.6142,32.3513 49.3472,35.7983 48.5172,41.4833 C48.4262,42.1093 48.2962,42.9843 48.1402,44.0263 L48.1392,44.0333 C47.8752,45.7923 47.5352,48.0493 47.1612,50.5133 C47.1522,50.5763 47.1432,50.6373 47.1332,50.7003 L47.1282,50.7343 C47.0912,50.9793 47.0532,51.2303 47.0152,51.4793 C46.7852,54.0683 47.4922,62.5433 66.5692,62.6403 L79.5552,63.1653 L79.7532,63.1733 C79.7532,63.1733 84.1052,63.1253 86.7382,63.1253 C92.2122,63.1253 93.1532,57.9073 92.5382,54.0443 C92.2852,52.4563 91.3632,47.0283 90.1162,40.7243 C96.2292,38.7723 96.4632,34.5663 95.2372,32.1413" id="Fill-14" fill="#d46b55"/><path d="M88.4906,38.0016 C88.6536,39.7836 91.8156,39.2826 91.5526,37.5086 C91.2436,35.4306 88.2996,35.9136 88.4906,38.0016" id="Fill-16" fill="#000"/><path d="M67.5155,28.4782 C67.3565,26.2582 69.1355,24.3862 71.3605,24.4052 C76.5325,24.4502 84.6195,24.4942 86.4755,24.3612 C89.2575,24.1622 90.9655,24.1122 90.4665,20.8702 C89.9675,17.6272 90.5528301,1.7072 64.8665,0.5012 C46.0125,-0.3828 38.8455,9.6462 35.6865,25.4422 C35.6865,25.4422 26.6245,28.0332 23.5485,38.0432 C20.4725,48.0542 24.1305,52.8762 24.1305,52.8762 C24.1305,52.8762 13.1565,54.2902 8.3345,67.2592 C3.5135,80.2282 7.5035,88.1252 10.3295,91.2022 C10.3295,91.2022 0.3535,98.1022 0.43598494,112.4852 C0.5195,126.8672 10.5795,134.6812 21.3875,135.5132 C32.1945,136.3442 43.1685,130.6082 47.6575,119.3012 C52.1465,107.9962 46.1615,94.6112 46.1615,94.6112 C46.1615,94.6112 54.1425,86.7412 54.3085,76.8742 C54.4745,67.0092 49.9745,64.3492 49.9745,64.3492 C49.9745,64.3492 61.5145,58.5452 65.7045,44.2022 C67.6495,37.5442 67.7675,31.9992 67.5155,28.4782" id="Fill-18" fill="#3164cf"/><path d="M37.3505,42.9049 C36.8095,42.9049 36.2885,42.6119 36.0205,42.0999 C35.6365,41.3679 35.9185,40.4629 36.6495,40.0769 C37.0535,39.8629 46.4415,34.7379 47.8295,21.7909 C47.9175,20.9669 48.6605,20.3779 49.4805,20.4589 C50.3045,20.5479 50.9005,21.2869 50.8125,22.1099 C49.2475,36.7069 38.5015,42.4939 38.0445,42.7329 C37.8225,42.8489 37.5845,42.9049 37.3505,42.9049" id="Fill-20" fill="#76396F" opacity=".25"/><path d="M60.2928,34.7565 C60.0278,34.7565 59.7588,34.6865 59.5158,34.5385 C58.8078,34.1095 58.5828,33.1865 59.0118,32.4785 C64.2388,23.8705 60.4128,12.5785 60.3738,12.4665 C60.1018,11.6835 60.5168,10.8285 61.2988,10.5575 C62.0828,10.2835 62.9358,10.6995 63.2078,11.4825 C63.3868,11.9975 67.5278,24.2335 61.5768,34.0345 C61.2938,34.4995 60.7998,34.7565 60.2928,34.7565" id="Fill-22" fill="#76396F" opacity=".25"/><path d="M18.3934022,89.6266 C17.7554,89.6266 17.1634,89.2166 16.9624,88.5746 C16.7154,87.7856 17.1524,86.9466 17.9404,86.6966 C18.3734,86.5556 28.0194,83.2446 27.8684,68.6886 C27.8594,67.8586 28.5244,67.1816 29.3524,67.1726 L29.3684,67.1726 C30.1894,67.1726 30.8594,67.8336 30.8684,68.6566 C31.0434,85.5386 19.3404,89.4016 18.8424,89.5576 C18.6934,89.6046 18.5414,89.6266 18.3934022,89.6266" id="Fill-24" fill="#76396F" opacity=".25"/><path d="M40.8387,72.8659 C40.1257,72.8659 39.4937,72.3549 39.3637,71.6289 C37.9007,63.4159 40.2687,57.7859 42.5127,54.5109 C44.9687,50.9259 47.8007,49.3079 47.9207,49.2419 C48.6417,48.8339 49.5577,49.0919 49.9627,49.8149 C50.3677,50.5359 50.1127,51.4489 49.3927,51.8549 C48.9797,52.0929 39.8907,57.4829 42.3177,71.1019 C42.4627,71.9179 41.9197,72.6969 41.1037,72.8419 C41.0147,72.8579 40.9257,72.8659 40.8387,72.8659" id="Fill-26" fill="#76396F" opacity=".25"/><path d="M27.705,116.3961 C27.348,116.3961 26.989,116.2691 26.702,116.0101 C26.086,115.4571 26.037,114.5081 26.591,113.8921 C31.957,107.9291 29.579,98.0671 29.554,97.9681 C29.353,97.1651 29.842,96.3501 30.644,96.1491 C31.447,95.9491 32.261,96.4341 32.463,97.2371 C32.58,97.7031 35.267,108.7361 28.82,115.8991 C28.524,116.2281 28.116,116.3961 27.705,116.3961" id="Fill-28" fill="#76396F" opacity=".25"/></g></g></g></g><g id="Expression" transform="translate(315.000000, 299.000000) scale(1 1)"><g id="Expression/Smile" stroke="none" stroke-width="1" fill="none" fill-rule="evenodd"><g id="Expression" transform="translate(14.000000, 12.000000)" fill="#000"><path d="M8.5371,3.6102 C8.8431,6.5462 13.2671,6.1902 13.3041,3.3662 C13.3451,0.1732 8.1761,0.1392 8.5371,3.6102" id="Fill-95"/><path d="M3.8824,24.6669 C10.1784,28.8049 17.2924,27.1859 17.6314,27.1049 C18.4374,26.9129 18.9354,26.1039 18.7434,25.2989 C18.5514,24.4919 17.7444,23.9949 16.9394,24.1859 C16.8054,24.2169 9.0204,25.9289 3.5054,20.5259 C2.9134,19.9499 1.9634,19.9569 1.3834,20.5479 C0.8044,21.1409 0.8144,22.0899 1.4064,22.6699 C2.2044,23.4509 3.0364,24.1109 3.8824,24.6669" id="Fill-97"/></g></g></g><g id="Facial Hair" transform="translate(311.300000, 303.950000) scale(1 1)" fill="#000"><g id="Facial Hair/None" stroke="none" stroke-width="1" fill="none" fill-rule="evenodd" fill-opacity="0"/></g><g id="Accesories" transform="translate(311.300000, 303.950000) scale(1 1)" fill="#000"><g id="Accesories/None" stroke="none" stroke-width="1" fill="none" fill-rule="evenodd" fill-opacity="0"/></g></g></svg>